<?xml version="1.0" standalone="no"?>
<!DOCTYPE svg PUBLIC "-//W3C//DTD SVG 20010904//EN"
 "http://www.w3.org/TR/2001/REC-SVG-20010904/DTD/svg10.dtd">
<svg version="1.0" xmlns="http://www.w3.org/2000/svg"
 width="260.000000pt" height="260.000000pt" viewBox="0 0 260.000000 260.000000"
 preserveAspectRatio="xMidYMid meet">
<metadata>
Created by potrace 1.14, written by Peter Selinger 2001-2017
</metadata>
<g transform="translate(0.000000,260.000000) scale(0.100000,-0.100000)"
fill="#000000" stroke="none">
<path d="M2220 2568 c-30 -11 -68 -30 -85 -41 -35 -24 -146 -136 -190 -191
-16 -20 -37 -46 -45 -56 -38 -46 -47 -58 -74 -94 -16 -22 -23 -36 -15 -32 8 4
5 1 -5 -8 -10 -8 -23 -13 -29 -9 -6 3 -7 1 -3 -5 3 -6 2 -13 -4 -17 -5 -3 -10
0 -10 7 0 10 -2 10 -9 -1 -5 -8 -16 -11 -25 -8 -8 3 -18 1 -22 -5 -5 -7 -2 -8
6 -3 9 5 11 4 6 -4 -4 -6 -11 -9 -16 -6 -4 3 -13 -2 -20 -10 -10 -12 -16 -13
-28 -3 -11 9 -14 9 -9 1 4 -6 3 -14 -3 -18 -5 -3 -10 0 -11 7 0 7 -4 4 -9 -7
-7 -17 -9 -17 -9 -2 -1 19 -16 23 -27 5 -5 -7 -3 -8 6 -3 9 5 11 4 6 -4 -4 -6
-13 -8 -19 -4 -7 4 -16 8 -22 8 -5 1 -9 7 -7 14 1 7 -2 10 -8 6 -6 -4 -8 -16
-5 -28 2 -12 2 -16 -1 -9 -3 6 -11 9 -17 5 -7 -4 -8 0 -4 13 7 18 7 18 -8 0
-15 -20 -15 -20 -15 0 -1 17 -1 18 -11 2 -8 -14 -15 -15 -37 -8 -25 10 -26 9
-8 -5 11 -8 15 -15 9 -15 -7 0 -19 7 -27 16 -9 8 -17 13 -17 10 -1 -3 -2 -10
-3 -15 0 -5 -5 -13 -10 -18 -5 -4 -6 -3 -2 4 3 6 2 14 -4 18 -5 3 -10 1 -10
-5 0 -7 -5 -8 -12 -3 -21 13 -116 10 -111 -3 6 -17 -11 -24 -27 -12 -12 8 -11
8 5 3 14 -4 17 -3 9 5 -12 12 -47 3 -38 -11 3 -5 -1 -6 -9 -3 -8 3 -18 1 -22
-5 -4 -8 -12 -8 -26 -1 -11 6 -17 15 -14 21 4 5 1 9 -4 9 -6 0 -11 -6 -11 -13
0 -8 -9 -13 -22 -11 -13 1 -26 3 -30 3 -5 1 -8 7 -8 14 0 8 -7 14 -15 14 -8 0
-12 -4 -9 -9 3 -4 0 -8 -5 -8 -6 0 -11 5 -11 11 0 5 -5 7 -10 4 -6 -4 -7 -12
-3 -18 4 -7 0 -6 -10 2 -18 15 -23 26 -7 16 6 -3 10 -1 10 4 0 15 -13 14 -29
-1 -12 -11 -13 -10 -7 6 5 15 4 17 -7 7 -11 -8 -19 -6 -37 9 -27 23 -36 25
-43 8 -4 -8 -6 -7 -6 3 -1 9 -12 19 -26 21 -13 3 -22 1 -19 -3 9 -14 -3 -10
-20 7 -9 8 -16 11 -16 5 0 -6 -11 -10 -24 -9 -14 1 -22 6 -20 10 3 4 -2 8 -11
8 -12 0 -170 118 -221 165 -68 62 -162 123 -270 175 -94 45 -160 58 -188 37
-31 -23 -35 -95 -9 -222 3 -16 6 -50 7 -75 1 -25 5 -50 8 -56 4 -6 10 -26 13
-45 10 -51 10 -50 28 -105 10 -28 26 -60 36 -70 17 -19 34 -63 35 -96 1 -9 4
-19 8 -23 3 -3 2 -21 -2 -38 -13 -47 1 -144 18 -133 6 4 10 -15 13 -61 1 -31
-6 -58 -19 -71 -7 -8 -10 -19 -6 -25 3 -7 -1 -4 -8 5 -13 15 -15 15 -26 -3 -7
-11 -8 -19 -2 -19 5 0 10 5 10 12 0 6 3 8 6 5 9 -9 -16 -38 -26 -32 -12 8 -20
-21 -8 -33 6 -6 6 -12 -1 -16 -6 -4 -11 -16 -11 -27 0 -10 -6 -19 -12 -19 -10
0 -9 -3 1 -9 9 -6 10 -10 2 -16 -9 -5 -9 -11 1 -23 10 -12 10 -14 1 -8 -8 4
-13 1 -13 -9 0 -10 5 -13 12 -9 8 5 8 1 -1 -10 -13 -15 -13 -19 0 -27 10 -6
11 -9 1 -9 -8 0 -10 -5 -6 -12 4 -7 9 -25 11 -41 2 -16 10 -35 19 -44 8 -9 13
-22 10 -29 -3 -8 -2 -14 2 -14 7 0 11 -18 12 -63 1 -9 4 -16 8 -13 8 4 9 -4
14 -106 1 -38 6 -68 10 -68 4 0 5 -7 2 -15 -5 -11 -2 -14 12 -9 16 6 17 5 7
-7 -16 -16 -17 -33 -1 -23 8 5 9 0 6 -14 -4 -14 -2 -20 5 -15 6 4 8 -2 5 -15
-4 -12 -2 -22 3 -22 5 0 9 -7 9 -15 0 -8 4 -15 9 -15 5 0 12 -7 15 -16 6 -15
4 -15 -11 -4 -10 8 -7 2 7 -12 14 -14 30 -23 35 -20 6 3 3 -3 -5 -14 -8 -10
-11 -16 -6 -12 4 4 20 -4 34 -17 14 -13 30 -21 36 -18 6 3 8 3 4 -2 -9 -10 4
-22 82 -75 36 -25 67 -48 70 -51 3 -3 28 -21 55 -39 28 -19 52 -37 53 -42 2
-4 10 -8 18 -8 8 0 14 -3 14 -7 0 -5 25 -24 55 -43 30 -19 55 -38 55 -42 0 -5
6 -8 14 -8 8 0 16 -4 18 -8 2 -5 32 -28 68 -52 36 -24 67 -46 70 -49 12 -14
92 -52 180 -84 84 -31 155 -49 255 -64 17 -2 36 -6 43 -8 6 -2 12 0 12 6 0 6
7 9 15 6 8 -4 17 -2 21 4 3 6 12 8 19 5 8 -3 25 4 39 15 16 13 27 16 31 9 5
-7 12 -5 22 7 8 10 12 12 8 6 -4 -9 -1 -11 9 -7 9 3 13 10 10 15 -3 5 3 6 12
2 13 -5 15 -3 9 8 -6 11 -5 11 5 2 13 -12 43 -6 35 7 -3 5 -1 11 5 15 5 3 10
1 10 -5 0 -6 5 -8 10 -5 6 4 7 12 3 18 -4 7 1 6 10 -2 16 -12 17 -12 11 5 -6
16 -5 17 7 6 16 -15 29 -16 29 -1 0 5 -5 7 -12 3 -6 -4 -8 -3 -4 4 3 6 15 9
26 7 12 -2 18 0 15 6 -4 5 1 9 10 9 10 0 13 5 9 12 -5 9 -2 8 10 -1 14 -12 19
-12 29 -1 9 9 9 11 0 6 -6 -3 -14 -2 -18 3 -3 6 6 8 21 5 16 -3 23 -1 19 6 -3
5 -2 10 4 10 5 0 12 -6 14 -12 4 -10 6 -10 6 0 1 7 5 11 10 7 5 -3 13 0 17 6
4 8 3 9 -4 5 -7 -4 -12 -2 -12 3 0 6 15 11 33 11 l32 1 -24 13 c-24 13 -24 14
-3 20 14 5 19 12 15 24 -3 11 1 9 11 -5 10 -13 23 -23 29 -23 7 0 6 4 -3 10
-9 6 -10 10 -3 10 7 0 17 -8 22 -17 9 -15 10 -15 11 -2 0 8 -4 20 -10 27 -7 9
-7 9 2 2 19 -16 38 -12 32 8 -5 14 -4 14 4 3 8 -12 13 -12 25 -3 8 7 19 11 23
10 5 -2 10 1 11 5 3 14 37 36 47 30 5 -4 6 -2 3 3 -3 6 3 16 15 23 15 9 18 10
13 0 -6 -8 -4 -10 4 -5 7 5 10 14 7 21 -3 8 2 12 12 10 9 -1 27 9 40 22 13 14
27 21 35 17 8 -5 7 -2 -2 9 -12 15 -12 17 3 11 9 -3 16 -1 16 6 0 6 5 8 10 5
9 -6 14 7 11 27 0 4 7 4 16 1 12 -5 15 -2 10 10 -4 11 -1 17 8 18 34 3 40 5
38 16 -2 7 6 15 17 18 11 4 18 11 14 16 -3 5 -10 6 -16 3 -7 -4 -8 -2 -4 4 4
6 14 8 23 5 13 -5 15 -2 10 11 -5 11 -3 15 5 10 8 -5 9 2 4 22 -4 19 -3 24 2
15 7 -9 12 -10 16 -2 4 6 4 11 -1 11 -4 0 -1 5 7 10 13 9 13 10 0 10 -9 0 -11
3 -5 8 6 4 19 32 29 62 10 30 28 75 39 100 11 25 20 51 20 58 0 6 4 12 9 12 4
0 8 5 8 11 0 5 -6 7 -12 4 -7 -4 -5 0 5 8 12 10 15 17 7 22 -8 5 -8 10 0 20 6
8 12 29 12 47 0 18 6 39 12 47 8 11 8 13 -1 7 -7 -4 -13 -2 -13 3 0 6 5 11 11
11 8 0 7 6 -2 17 -17 20 -17 16 0 36 11 14 11 17 0 17 -11 0 -11 2 1 10 12 8
12 10 1 10 -11 0 -11 3 0 17 12 14 12 16 0 8 -11 -6 -13 -4 -8 8 4 10 1 17 -6
17 -8 0 -6 4 3 10 8 5 10 10 4 10 -6 0 -10 14 -9 30 1 17 -1 30 -5 30 -3 0 -7
10 -7 23 -5 95 -11 112 -43 129 -3 2 -34 36 -69 76 l-64 74 13 56 c20 84 20
82 25 142 8 80 18 148 28 190 2 8 7 33 12 55 4 22 10 49 12 60 3 11 6 78 8
149 4 181 -28 305 -85 336 -29 16 -90 11 -150 -12z m-1370 -478 c0 -5 -2 -10
-4 -10 -3 0 -8 5 -11 10 -3 6 -1 10 4 10 6 0 11 -4 11 -10z"/>
<path d="M1666 2093 c-6 -14 -5 -15 5 -6 7 7 10 15 7 18 -3 3 -9 -2 -12 -12z"/>
<path d="M1151 2046 c-8 -10 -9 -16 -1 -21 5 -3 10 -5 11 -3 4 18 7 38 4 38
-1 0 -8 -6 -14 -14z"/>
<path d="M1066 2038 c3 -5 10 -6 15 -3 13 9 11 12 -6 12 -8 0 -12 -4 -9 -9z"/>
<path d="M1920 240 c-9 -6 -10 -10 -3 -10 6 0 15 5 18 10 8 12 4 12 -15 0z"/>
</g>
</svg>
